<svg width="33" height="33" viewBox="0 0 33 33" fill="none" xmlns="http://www.w3.org/2000/svg">
<path d="M15.5698 29.6927C15.8324 29.8372 16.1281 29.911 16.4278 29.907C16.7276 29.9029 17.0211 29.8212 17.2798 29.6697C20.8638 27.6227 27.0898 22.9087 29.5348 16.7857C33.1248 8.81269 24.6968 2.44869 18.8728 7.02569C18.2648 7.50369 17.5008 8.05069 16.9758 8.56769C16.7378 8.80169 16.3188 8.82569 16.0718 8.60169C15.3818 7.97169 14.3008 7.16569 13.6068 6.69669C8.64179 3.33669 -0.393211 7.76569 3.46079 17.2167C4.87279 21.4587 11.6008 27.4767 15.5698 29.6927Z" fill="url(#paint0_radial_9754_34355)"/>
<path d="M15.5698 29.6927C15.8324 29.8372 16.1281 29.911 16.4278 29.907C16.7276 29.9029 17.0211 29.8212 17.2798 29.6697C20.8638 27.6227 27.0898 22.9087 29.5348 16.7857C33.1248 8.81269 24.6968 2.44869 18.8728 7.02569C18.2648 7.50369 17.5008 8.05069 16.9758 8.56769C16.7378 8.80169 16.3188 8.82569 16.0718 8.60169C15.3818 7.97169 14.3008 7.16569 13.6068 6.69669C8.64179 3.33669 -0.393211 7.76569 3.46079 17.2167C4.87279 21.4587 11.6008 27.4767 15.5698 29.6927Z" fill="url(#paint1_radial_9754_34355)"/>
<path d="M15.5698 29.6927C15.8324 29.8372 16.1281 29.911 16.4278 29.907C16.7276 29.9029 17.0211 29.8212 17.2798 29.6697C20.8638 27.6227 27.0898 22.9087 29.5348 16.7857C33.1248 8.81269 24.6968 2.44869 18.8728 7.02569C18.2648 7.50369 17.5008 8.05069 16.9758 8.56769C16.7378 8.80169 16.3188 8.82569 16.0718 8.60169C15.3818 7.97169 14.3008 7.16569 13.6068 6.69669C8.64179 3.33669 -0.393211 7.76569 3.46079 17.2167C4.87279 21.4587 11.6008 27.4767 15.5698 29.6927Z" fill="url(#paint2_radial_9754_34355)"/>
<path d="M15.5698 29.6927C15.8324 29.8372 16.1281 29.911 16.4278 29.907C16.7276 29.9029 17.0211 29.8212 17.2798 29.6697C20.8638 27.6227 27.0898 22.9087 29.5348 16.7857C33.1248 8.81269 24.6968 2.44869 18.8728 7.02569C18.2648 7.50369 17.5008 8.05069 16.9758 8.56769C16.7378 8.80169 16.3188 8.82569 16.0718 8.60169C15.3818 7.97169 14.3008 7.16569 13.6068 6.69669C8.64179 3.33669 -0.393211 7.76569 3.46079 17.2167C4.87279 21.4587 11.6008 27.4767 15.5698 29.6927Z" fill="url(#paint3_radial_9754_34355)"/>
<path d="M15.5698 29.6927C15.8324 29.8372 16.1281 29.911 16.4278 29.907C16.7276 29.9029 17.0211 29.8212 17.2798 29.6697C20.8638 27.6227 27.0898 22.9087 29.5348 16.7857C33.1248 8.81269 24.6968 2.44869 18.8728 7.02569C18.2648 7.50369 17.5008 8.05069 16.9758 8.56769C16.7378 8.80169 16.3188 8.82569 16.0718 8.60169C15.3818 7.97169 14.3008 7.16569 13.6068 6.69669C8.64179 3.33669 -0.393211 7.76569 3.46079 17.2167C4.87279 21.4587 11.6008 27.4767 15.5698 29.6927Z" fill="url(#paint4_linear_9754_34355)"/>
<path d="M15.5698 29.6927C15.8324 29.8372 16.1281 29.911 16.4278 29.907C16.7276 29.9029 17.0211 29.8212 17.2798 29.6697C20.8638 27.6227 27.0898 22.9087 29.5348 16.7857C33.1248 8.81269 24.6968 2.44869 18.8728 7.02569C18.2648 7.50369 17.5008 8.05069 16.9758 8.56769C16.7378 8.80169 16.3188 8.82569 16.0718 8.60169C15.3818 7.97169 14.3008 7.16569 13.6068 6.69669C8.64179 3.33669 -0.393211 7.76569 3.46079 17.2167C4.87279 21.4587 11.6008 27.4767 15.5698 29.6927Z" fill="url(#paint5_linear_9754_34355)"/>
<path d="M15.5698 29.6927C15.8324 29.8372 16.1281 29.911 16.4278 29.907C16.7276 29.9029 17.0211 29.8212 17.2798 29.6697C20.8638 27.6227 27.0898 22.9087 29.5348 16.7857C33.1248 8.81269 24.6968 2.44869 18.8728 7.02569C18.2648 7.50369 17.5008 8.05069 16.9758 8.56769C16.7378 8.80169 16.3188 8.82569 16.0718 8.60169C15.3818 7.97169 14.3008 7.16569 13.6068 6.69669C8.64179 3.33669 -0.393211 7.76569 3.46079 17.2167C4.87279 21.4587 11.6008 27.4767 15.5698 29.6927Z" fill="url(#paint6_radial_9754_34355)" fill-opacity="0.6"/>
<g filter="url(#filter0_f_9754_34355)">
<path d="M16.2617 11.0311V17.8541C16.2617 18.7591 17.3577 19.1881 17.9217 18.4811C19.6667 16.2911 21.0747 13.6301 19.5037 11.4561C18.9017 10.6221 17.7477 10.0881 16.8047 10.2581C16.4527 10.3211 16.2617 10.6731 16.2617 11.0321" fill="#FA1C56"/>
</g>
<g filter="url(#filter1_f_9754_34355)">
<path d="M27.5958 14.521C29.3628 12.8033 29.6405 10.2231 28.2161 8.75783C26.7918 7.29261 24.2047 7.49729 22.4377 9.215C20.6707 10.9327 20.393 13.513 21.8173 14.9782C23.2417 16.4434 25.8288 16.2388 27.5958 14.521Z" fill="url(#paint7_radial_9754_34355)"/>
</g>
<g filter="url(#filter2_f_9754_34355)">
<path d="M23.7668 6.91077C24.6945 7.02739 25.4664 6.96379 25.4909 6.76871C25.5155 6.57363 24.7833 6.32095 23.8556 6.20433C22.9278 6.0877 22.1559 6.15131 22.1314 6.34638C22.1069 6.54146 22.839 6.79414 23.7668 6.91077Z" fill="#FF7383"/>
</g>
<g filter="url(#filter3_f_9754_34355)">
<path d="M9.74565 6.79296C10.5845 6.78276 11.2632 6.66301 11.2615 6.5255C11.2598 6.38799 10.5784 6.28479 9.73959 6.295C8.90073 6.3052 8.22206 6.42495 8.22373 6.56246C8.2254 6.69997 8.90679 6.80317 9.74565 6.79296Z" fill="#FF93BA" fill-opacity="0.5"/>
</g>
<g filter="url(#filter4_f_9754_34355)">
<path d="M15.1976 10.4527L15.5106 20.7027C8.63565 14.0147 7.31265 9.31872 9.94765 8.26472C12.4476 7.26472 14.4476 8.88972 15.1976 10.4527Z" fill="url(#paint8_radial_9754_34355)"/>
</g>
<g filter="url(#filter5_f_9754_34355)">
<path d="M14.6973 9.85313C13.8573 9.73313 13.5973 9.03613 13.5723 8.70312C14.0523 9.20312 14.5223 9.24512 14.6973 9.20312V9.85313Z" fill="#FF7383"/>
</g>
<defs>
<filter id="filter0_f_9754_34355" x="14.7617" y="8.72656" width="6.92383" height="11.6074" filterUnits="userSpaceOnUse" color-interpolation-filters="sRGB">
<feFlood flood-opacity="0" result="BackgroundImageFix"/>
<feBlend mode="normal" in="SourceGraphic" in2="BackgroundImageFix" result="shape"/>
<feGaussianBlur stdDeviation="0.75" result="effect1_foregroundBlur_9754_34355"/>
</filter>
<filter id="filter1_f_9754_34355" x="19.7812" y="6.65527" width="10.4707" height="10.4258" filterUnits="userSpaceOnUse" color-interpolation-filters="sRGB">
<feFlood flood-opacity="0" result="BackgroundImageFix"/>
<feBlend mode="normal" in="SourceGraphic" in2="BackgroundImageFix" result="shape"/>
<feGaussianBlur stdDeviation="0.5625" result="effect1_foregroundBlur_9754_34355"/>
</filter>
<filter id="filter2_f_9754_34355" x="20.6309" y="4.64551" width="6.36133" height="3.82324" filterUnits="userSpaceOnUse" color-interpolation-filters="sRGB">
<feFlood flood-opacity="0" result="BackgroundImageFix"/>
<feBlend mode="normal" in="SourceGraphic" in2="BackgroundImageFix" result="shape"/>
<feGaussianBlur stdDeviation="0.75" result="effect1_foregroundBlur_9754_34355"/>
</filter>
<filter id="filter3_f_9754_34355" x="7.09961" y="5.16895" width="5.28711" height="2.75" filterUnits="userSpaceOnUse" color-interpolation-filters="sRGB">
<feFlood flood-opacity="0" result="BackgroundImageFix"/>
<feBlend mode="normal" in="SourceGraphic" in2="BackgroundImageFix" result="shape"/>
<feGaussianBlur stdDeviation="0.5625" result="effect1_foregroundBlur_9754_34355"/>
</filter>
<filter id="filter4_f_9754_34355" x="6.43555" y="5.70703" width="11.3242" height="17.2461" filterUnits="userSpaceOnUse" color-interpolation-filters="sRGB">
<feFlood flood-opacity="0" result="BackgroundImageFix"/>
<feBlend mode="normal" in="SourceGraphic" in2="BackgroundImageFix" result="shape"/>
<feGaussianBlur stdDeviation="1.125" result="effect1_foregroundBlur_9754_34355"/>
</filter>
<filter id="filter5_f_9754_34355" x="12.8223" y="7.95312" width="2.625" height="2.65039" filterUnits="userSpaceOnUse" color-interpolation-filters="sRGB">
<feFlood flood-opacity="0" result="BackgroundImageFix"/>
<feBlend mode="normal" in="SourceGraphic" in2="BackgroundImageFix" result="shape"/>
<feGaussianBlur stdDeviation="0.375" result="effect1_foregroundBlur_9754_34355"/>
</filter>
<radialGradient id="paint0_radial_9754_34355" cx="0" cy="0" r="1" gradientUnits="userSpaceOnUse" gradientTransform="translate(16.2358 6.12469) rotate(90) scale(22.9845 24.4021)">
<stop stop-color="#FC0000"/>
<stop offset="0.528" stop-color="#FF3B79"/>
<stop offset="1" stop-color="#F724B3"/>
</radialGradient>
<radialGradient id="paint1_radial_9754_34355" cx="0" cy="0" r="1" gradientUnits="userSpaceOnUse" gradientTransform="translate(23.3778 11.8537) rotate(134.402) scale(21.2647 39.8308)">
<stop offset="0.798" stop-color="#C82092" stop-opacity="0"/>
<stop offset="0.908" stop-color="#C82092"/>
</radialGradient>
<radialGradient id="paint2_radial_9754_34355" cx="0" cy="0" r="1" gradientUnits="userSpaceOnUse" gradientTransform="translate(20.3498 18.2797) rotate(-158.663) scale(22.749 32.159)">
<stop offset="0.41" stop-color="#B91D43" stop-opacity="0"/>
<stop offset="0.834" stop-color="#B91D43"/>
</radialGradient>
<radialGradient id="paint3_radial_9754_34355" cx="0" cy="0" r="1" gradientUnits="userSpaceOnUse" gradientTransform="translate(15.9128 14.3067) rotate(90) scale(19.7992)">
<stop offset="0.671" stop-color="#FF7AF2" stop-opacity="0"/>
<stop offset="0.934" stop-color="#FFBCE6"/>
</radialGradient>
<linearGradient id="paint4_linear_9754_34355" x1="18.0978" y1="16.6237" x2="26.1108" y2="26.1597" gradientUnits="userSpaceOnUse">
<stop offset="0.694" stop-color="#FF7AF2" stop-opacity="0"/>
<stop offset="0.934" stop-color="#FFBCE6"/>
</linearGradient>
<linearGradient id="paint5_linear_9754_34355" x1="17.1048" y1="17.0207" x2="7.70179" y2="27.6157" gradientUnits="userSpaceOnUse">
<stop offset="0.694" stop-color="#FF7AF2" stop-opacity="0"/>
<stop offset="0.934" stop-color="#FFBCE6"/>
</linearGradient>
<radialGradient id="paint6_radial_9754_34355" cx="0" cy="0" r="1" gradientUnits="userSpaceOnUse" gradientTransform="translate(18.6998 13.3867) rotate(164.618) scale(17.2146 18.1802)">
<stop offset="0.802" stop-color="#FF73A6" stop-opacity="0"/>
<stop offset="1" stop-color="#FF93BA"/>
</radialGradient>
<radialGradient id="paint7_radial_9754_34355" cx="0" cy="0" r="1" gradientUnits="userSpaceOnUse" gradientTransform="translate(28.1252 8.67235) rotate(128.737) scale(7.29137 9.69562)">
<stop stop-color="#FF7383"/>
<stop offset="1" stop-color="#FF7383" stop-opacity="0"/>
</radialGradient>
<radialGradient id="paint8_radial_9754_34355" cx="0" cy="0" r="1" gradientUnits="userSpaceOnUse" gradientTransform="translate(16.6976 14.3307) rotate(-135.591) scale(12.6861 22.52)">
<stop stop-color="#FF6274"/>
<stop offset="1" stop-color="#FF6274" stop-opacity="0"/>
</radialGradient>
</defs>
</svg>
